<svg width="272" height="306" viewBox="0 0 272 306" fill="none" xmlns="http://www.w3.org/2000/svg">
<path d="M271 304C267.167 258.562 235.5 160.481 139.5 131.664C43.5 102.848 16.5 32.5478 15 1" stroke="url(#paint0_linear_210_511)" stroke-opacity="0.19"/>
<path d="M271 302.832C205.601 309.672 63.6622 304.247 19.1036 227.832C-25.455 151.416 18.2673 44.1041 45.6982 0" stroke="url(#paint1_linear_210_511)" stroke-opacity="0.19"/>
<path d="M271 303.944C264.235 260.996 227.317 167.327 133.767 136.244C40.2164 105.16 16.5842 33.0981 16.4618 0.952393" stroke="url(#paint2_linear_210_511)" stroke-opacity="0.19"/>
<path d="M271 303.889C261.303 263.429 219.134 174.173 128.034 140.823C36.9329 107.473 16.6683 33.6484 17.9236 0.904785" stroke="url(#paint3_linear_210_511)" stroke-opacity="0.19"/>
<path d="M271 303.833C258.372 265.863 210.952 181.019 122.301 145.403C33.6493 109.786 16.7525 34.1987 19.3855 0.857178" stroke="url(#paint4_linear_210_511)" stroke-opacity="0.19"/>
<path d="M271 303.778C255.44 268.297 202.769 187.865 116.567 149.982C30.3657 112.099 16.8366 34.749 20.8473 0.80957" stroke="url(#paint5_linear_210_511)" stroke-opacity="0.19"/>
<path d="M271 303.722C252.508 270.731 194.586 194.711 110.834 154.561C27.0822 114.412 16.9208 35.2993 22.3091 0.761963" stroke="url(#paint6_linear_210_511)" stroke-opacity="0.19"/>
<path d="M271 303.666C249.576 273.165 186.403 201.557 105.101 159.141C23.7986 116.724 17.005 35.8497 23.7709 0.714355" stroke="url(#paint7_linear_210_511)" stroke-opacity="0.19"/>
<path d="M271 303.611C246.645 275.599 178.221 208.403 99.3679 163.72C20.515 119.037 17.0891 36.4 25.2328 0.666748" stroke="url(#paint8_linear_210_511)" stroke-opacity="0.19"/>
<path d="M271 303.555C243.713 278.032 170.038 215.249 93.6347 168.3C17.2315 121.35 17.1733 36.9503 26.6946 0.619141" stroke="url(#paint9_linear_210_511)" stroke-opacity="0.19"/>
<path d="M271 303.5C240.781 280.466 161.855 222.095 87.9016 172.879C13.9479 123.663 17.2574 37.5006 28.1564 0.571533" stroke="url(#paint10_linear_210_511)" stroke-opacity="0.19"/>
<path d="M271 303.444C237.849 282.9 153.672 228.941 82.1684 177.458C10.6643 125.976 17.3416 38.0509 29.6182 0.523926" stroke="url(#paint11_linear_210_511)" stroke-opacity="0.19"/>
<path d="M271 303.388C234.918 285.334 145.49 235.787 76.4352 182.038C7.38074 128.288 17.4257 38.601 31.08 0.476074" stroke="url(#paint12_linear_210_511)" stroke-opacity="0.19"/>
<path d="M271 303.333C231.986 287.767 137.307 242.633 70.7021 186.617C4.09718 130.601 17.5099 39.1513 32.5419 0.428467" stroke="url(#paint13_linear_210_511)" stroke-opacity="0.19"/>
<path d="M271 303.277C229.054 290.201 129.124 249.479 64.9689 191.196C0.813614 132.914 17.5941 39.7016 34.0037 0.380859" stroke="url(#paint14_linear_210_511)" stroke-opacity="0.19"/>
<path d="M271 303.221C226.123 292.635 120.941 256.325 59.2357 195.776C-2.46996 135.227 17.6782 40.2519 35.4655 0.333252" stroke="url(#paint15_linear_210_511)" stroke-opacity="0.19"/>
<path d="M271 303.166C223.191 295.069 112.759 263.171 53.5026 200.355C-5.75352 137.539 17.7624 40.8022 36.9273 0.285645" stroke="url(#paint16_linear_210_511)" stroke-opacity="0.19"/>
<path d="M271 303.11C220.259 297.503 104.576 270.017 47.7694 204.935C-9.0371 139.852 17.8465 41.3525 38.3891 0.238037" stroke="url(#paint17_linear_210_511)" stroke-opacity="0.19"/>
<path d="M271 303.055C217.327 299.937 96.3932 276.863 42.0363 209.514C-12.3207 142.165 17.9307 41.9028 39.851 0.19043" stroke="url(#paint18_linear_210_511)" stroke-opacity="0.19"/>
<path d="M271 302.999C214.396 302.37 88.2104 283.709 36.3031 214.094C-15.6042 144.478 18.0148 42.4531 41.3128 0.142822" stroke="url(#paint19_linear_210_511)" stroke-opacity="0.19"/>
<path d="M271 302.943C211.464 304.804 80.0277 290.555 30.5699 218.673C-18.8878 146.791 18.099 43.0035 42.7746 0.0952148" stroke="url(#paint20_linear_210_511)" stroke-opacity="0.19"/>
<path d="M271 302.888C208.532 307.238 71.8449 297.401 24.8368 223.252C-22.1714 149.103 18.1832 43.5538 44.2364 0.0476074" stroke="url(#paint21_linear_210_511)" stroke-opacity="0.19"/>
<defs>
<linearGradient id="paint0_linear_210_511" x1="143" y1="1" x2="143" y2="304" gradientUnits="userSpaceOnUse">
<stop stop-color="#14F195"/>
<stop offset="1" stop-color="#14F195" stop-opacity="0"/>
</linearGradient>
<linearGradient id="paint1_linear_210_511" x1="135.5" y1="0" x2="135.5" y2="305" gradientUnits="userSpaceOnUse">
<stop stop-color="#14F195"/>
<stop offset="1" stop-color="#14F195" stop-opacity="0"/>
</linearGradient>
<linearGradient id="paint2_linear_210_511" x1="143.731" y1="0.952393" x2="143.731" y2="303.944" gradientUnits="userSpaceOnUse">
<stop stop-color="#14F195"/>
<stop offset="1" stop-color="#14F195" stop-opacity="0"/>
</linearGradient>
<linearGradient id="paint3_linear_210_511" x1="144.435" y1="0.904785" x2="144.435" y2="303.889" gradientUnits="userSpaceOnUse">
<stop stop-color="#14F195"/>
<stop offset="1" stop-color="#14F195" stop-opacity="0"/>
</linearGradient>
<linearGradient id="paint4_linear_210_511" x1="145.067" y1="0.857178" x2="145.067" y2="303.833" gradientUnits="userSpaceOnUse">
<stop stop-color="#14F195"/>
<stop offset="1" stop-color="#14F195" stop-opacity="0"/>
</linearGradient>
<linearGradient id="paint5_linear_210_511" x1="145.613" y1="0.80957" x2="145.613" y2="303.778" gradientUnits="userSpaceOnUse">
<stop stop-color="#14F195"/>
<stop offset="1" stop-color="#14F195" stop-opacity="0"/>
</linearGradient>
<linearGradient id="paint6_linear_210_511" x1="146.06" y1="0.761963" x2="146.06" y2="303.722" gradientUnits="userSpaceOnUse">
<stop stop-color="#14F195"/>
<stop offset="1" stop-color="#14F195" stop-opacity="0"/>
</linearGradient>
<linearGradient id="paint7_linear_210_511" x1="146.395" y1="0.714355" x2="146.395" y2="303.666" gradientUnits="userSpaceOnUse">
<stop stop-color="#14F195"/>
<stop offset="1" stop-color="#14F195" stop-opacity="0"/>
</linearGradient>
<linearGradient id="paint8_linear_210_511" x1="146.609" y1="0.666748" x2="146.609" y2="303.611" gradientUnits="userSpaceOnUse">
<stop stop-color="#14F195"/>
<stop offset="1" stop-color="#14F195" stop-opacity="0"/>
</linearGradient>
<linearGradient id="paint9_linear_210_511" x1="146.692" y1="0.619141" x2="146.692" y2="303.555" gradientUnits="userSpaceOnUse">
<stop stop-color="#14F195"/>
<stop offset="1" stop-color="#14F195" stop-opacity="0"/>
</linearGradient>
<linearGradient id="paint10_linear_210_511" x1="146.639" y1="0.571533" x2="146.639" y2="303.5" gradientUnits="userSpaceOnUse">
<stop stop-color="#14F195"/>
<stop offset="1" stop-color="#14F195" stop-opacity="0"/>
</linearGradient>
<linearGradient id="paint11_linear_210_511" x1="146.445" y1="0.523926" x2="146.445" y2="303.444" gradientUnits="userSpaceOnUse">
<stop stop-color="#14F195"/>
<stop offset="1" stop-color="#14F195" stop-opacity="0"/>
</linearGradient>
<linearGradient id="paint12_linear_210_511" x1="146.11" y1="0.476074" x2="146.11" y2="303.388" gradientUnits="userSpaceOnUse">
<stop stop-color="#14F195"/>
<stop offset="1" stop-color="#14F195" stop-opacity="0"/>
</linearGradient>
<linearGradient id="paint13_linear_210_511" x1="145.633" y1="0.428467" x2="145.633" y2="303.333" gradientUnits="userSpaceOnUse">
<stop stop-color="#14F195"/>
<stop offset="1" stop-color="#14F195" stop-opacity="0"/>
</linearGradient>
<linearGradient id="paint14_linear_210_511" x1="145.016" y1="0.380859" x2="145.016" y2="303.277" gradientUnits="userSpaceOnUse">
<stop stop-color="#14F195"/>
<stop offset="1" stop-color="#14F195" stop-opacity="0"/>
</linearGradient>
<linearGradient id="paint15_linear_210_511" x1="144.263" y1="0.333252" x2="144.263" y2="303.221" gradientUnits="userSpaceOnUse">
<stop stop-color="#14F195"/>
<stop offset="1" stop-color="#14F195" stop-opacity="0"/>
</linearGradient>
<linearGradient id="paint16_linear_210_511" x1="143.375" y1="0.285645" x2="143.375" y2="303.166" gradientUnits="userSpaceOnUse">
<stop stop-color="#14F195"/>
<stop offset="1" stop-color="#14F195" stop-opacity="0"/>
</linearGradient>
<linearGradient id="paint17_linear_210_511" x1="142.358" y1="0.238037" x2="142.358" y2="303.11" gradientUnits="userSpaceOnUse">
<stop stop-color="#14F195"/>
<stop offset="1" stop-color="#14F195" stop-opacity="0"/>
</linearGradient>
<linearGradient id="paint18_linear_210_511" x1="141.217" y1="0.19043" x2="141.217" y2="303.055" gradientUnits="userSpaceOnUse">
<stop stop-color="#14F195"/>
<stop offset="1" stop-color="#14F195" stop-opacity="0"/>
</linearGradient>
<linearGradient id="paint19_linear_210_511" x1="139.955" y1="0.142822" x2="139.955" y2="302.999" gradientUnits="userSpaceOnUse">
<stop stop-color="#14F195"/>
<stop offset="1" stop-color="#14F195" stop-opacity="0"/>
</linearGradient>
<linearGradient id="paint20_linear_210_511" x1="138.579" y1="0.0952148" x2="138.579" y2="303.097" gradientUnits="userSpaceOnUse">
<stop stop-color="#14F195"/>
<stop offset="1" stop-color="#14F195" stop-opacity="0"/>
</linearGradient>
<linearGradient id="paint21_linear_210_511" x1="137.092" y1="0.0476074" x2="137.092" y2="303.756" gradientUnits="userSpaceOnUse">
<stop stop-color="#14F195"/>
<stop offset="1" stop-color="#14F195" stop-opacity="0"/>
</linearGradient>
</defs>
</svg>
